<?xml version="1.0" encoding="UTF-8" standalone="no"?>
<!-- Created with Inkscape (http://www.inkscape.org/) -->

<svg
   width="40mm"
   height="40mm"
   viewBox="0 0 40 40"
   version="1.1"
   id="svg1"
   inkscape:export-filename="O.svg"
   inkscape:export-xdpi="96"
   inkscape:export-ydpi="96"
   xmlns:inkscape="http://www.inkscape.org/namespaces/inkscape"
   xmlns:sodipodi="http://sodipodi.sourceforge.net/DTD/sodipodi-0.dtd"
   xmlns="http://www.w3.org/2000/svg"
   xmlns:svg="http://www.w3.org/2000/svg">
  <sodipodi:namedview
     id="namedview1"
     pagecolor="#ffffff"
     bordercolor="#000000"
     borderopacity="0.25"
     inkscape:showpageshadow="2"
     inkscape:pageopacity="0.0"
     inkscape:pagecheckerboard="0"
     inkscape:deskcolor="#d1d1d1"
     inkscape:document-units="mm"
     inkscape:export-bgcolor="#ffffff00" />
  <defs
     id="defs1" />
  <g
     inkscape:label="Layer 1"
     inkscape:groupmode="layer"
     id="layer1">
    <path
       id="path1"
       style="fill:#3a3ac5;fill-opacity:1;stroke-width:0.615739"
       d="M 19.999813,0 A 20,20 0 0 0 0,19.999813 20,20 0 0 0 19.999813,40.000142 20,20 0 0 0 40.000142,19.999813 20,20 0 0 0 19.999813,0 Z m 0,8.5937907 A 11.406,11.406 0 0 1 31.405835,19.999813 11.406,11.406 0 0 1 19.999813,31.405835 11.406,11.406 0 0 1 8.5937907,19.999813 11.406,11.406 0 0 1 19.999813,8.5937907 Z" />
  </g>
</svg>
